<svg width="1939" height="1939" viewBox="0 0 1939 1939" fill="none" xmlns="http://www.w3.org/2000/svg">
<circle cx="969.5" cy="969.5" r="919.5" fill="#E31937" stroke="#A4A4A4" stroke-width="100"/>
<path d="M969.922 1600.29L1128.27 709.772C1139.27 647.924 1193.3 600.593 1255.77 607.187C1276.52 609.378 1294.05 612.507 1308.77 616.806C1364.03 632.938 1397.85 692.102 1446.78 661.784V661.784C1492.6 633.393 1503.74 548.282 1452.9 530.368C1317.76 482.75 1194.49 467.649 1136.08 462.927C1113.57 461.107 1092.12 471.013 1077.79 488.467L969.734 620.083C969.695 620.13 969.732 620.2 969.792 620.196V620.196C969.849 620.192 969.877 620.126 969.841 620.083L865.242 492.683C848.713 472.551 823.944 461.122 797.993 463.361C737.597 468.57 617.714 484.169 486.688 530.34C435.835 548.26 446.952 633.377 492.788 661.772V661.772C541.728 692.09 575.498 632.9 630.746 616.717C645.313 612.45 662.624 609.333 683.084 607.139C745.305 600.467 799.181 647.579 810.22 709.175L969.922 1600.29" fill="white"/>
<path d="M969.852 414.787C1139.73 413.488 1332.73 439.378 1531.17 519.319C1552.28 527.823 1586.97 500.445 1596.28 479.68V479.68C1605.81 458.42 1586.85 454.771 1564.99 446.694C1348.44 366.663 1145.74 338.741 969.827 338C794.125 338.74 591.705 366.602 375.474 446.411C353.456 454.538 335.191 461.106 344.941 482.455V482.455C354.187 502.703 387.079 527.964 407.72 519.633C606.407 439.446 799.73 413.486 969.832 414.787H969.852" fill="white"/>
</svg>
