<svg width="1082" height="1775" viewBox="0 0 1082 1775" fill="none" xmlns="http://www.w3.org/2000/svg">
<circle cx="540.5" cy="1710.5" r="64.5" fill="#747474"/>
<path d="M61.9938 769.916L61.9807 769.888L61.9674 769.86C28.6567 700.547 10 622.725 10 540.625C10 247.538 247.59 10 540.625 10C833.713 10 1071.25 247.537 1071.25 540.625C1071.25 627.386 1050.42 709.249 1013.53 781.469L1013.53 781.472L540.625 1708L528.655 1684.55C515.369 1658.52 496.386 1621.32 473.601 1576.67C428.03 1487.38 367.249 1368.28 306.409 1249.06C245.569 1129.83 184.67 1010.48 138.862 920.686C115.958 875.789 96.827 838.281 83.363 811.872C76.6309 798.668 71.3161 788.239 67.655 781.05C65.8243 777.455 64.4082 774.672 63.4355 772.757C62.805 771.516 62.4017 770.72 62.1863 770.295C62.0462 770.018 61.9856 769.898 61.9938 769.916ZM206.25 540.625C206.25 725.229 355.965 875 540.625 875C725.23 875 875 725.23 875 540.625C875 356.02 725.23 206.25 540.625 206.25C355.965 206.25 206.25 356.021 206.25 540.625Z" fill="#0072F8" stroke="#9B9B9B" stroke-width="20"/>
<path d="M207.625 511C207.625 327.089 356.714 178 540.625 178V178C724.536 178 873.625 327.089 873.625 511V602C873.625 785.911 724.536 935 540.625 935V935C356.714 935 207.625 785.911 207.625 602V511Z" fill="#0072F8"/>
<path d="M540.602 1149.29L645.007 562.128C652.258 521.348 687.885 490.141 729.075 494.489C742.758 495.933 754.314 497.996 764.022 500.831C800.455 511.467 822.759 550.477 855.021 530.487V530.487C885.233 511.768 892.576 455.649 859.054 443.838C769.952 412.441 688.668 402.484 650.158 399.371C635.316 398.171 621.176 404.702 611.727 416.211L540.478 502.991C540.452 503.022 540.476 503.069 540.516 503.066V503.066C540.553 503.064 540.572 503.02 540.548 502.991L471.581 418.99C460.682 405.716 444.351 398.181 427.24 399.657C387.418 403.092 308.373 413.377 221.981 443.819C188.451 455.635 195.781 511.757 226.003 530.479V530.479C258.271 550.47 280.538 511.443 316.966 500.772C326.571 497.959 337.985 495.904 351.475 494.457C392.5 490.058 428.023 521.121 435.302 561.735L540.602 1149.29" fill="white"/>
<path d="M540.556 367.629C652.563 366.773 779.818 383.844 910.663 436.553C924.581 442.16 947.452 424.108 953.591 410.417V410.417C959.877 396.399 947.371 393.993 932.961 388.667C790.178 335.899 656.528 317.489 540.539 317C424.69 317.488 291.224 335.859 148.652 388.481C134.134 393.839 122.092 398.17 128.52 412.247V412.247C134.616 425.597 156.304 442.253 169.914 436.76C300.918 383.888 428.386 366.772 540.542 367.629H540.556" fill="white"/>
</svg>
