<svg width="52" height="55" viewBox="0 0 52 55" fill="none" xmlns="http://www.w3.org/2000/svg">
<path d="M4 0H48V4H4V0Z" fill="#E82127"/>
<path d="M45.5 9H28.8654L26 15.9987L23.1335 9H6.5C2.91516 9 0 11.8475 0 15.3492V25.9311H4.33333V23.8147C4.33333 22.6475 5.30505 21.6983 6.5 21.6983H12.607L26 55L39.3936 21.6983H45.5C46.6949 21.6983 47.6667 22.6475 47.6667 23.8147V25.9311H52V15.3492C52 11.8486 49.0848 9 45.5 9V9ZM45.5 17.4656H36.4403L26 43.4229L15.5602 17.4656H6.5C5.74093 17.4656 5.01147 17.5937 4.33333 17.8283V15.3492C4.33333 14.182 5.30505 13.2328 6.5 13.2328H20.1998L26 27.398L31.8002 13.2328H45.5C46.6949 13.2328 47.6667 14.182 47.6667 15.3492V17.8283C46.9885 17.5937 46.2596 17.4656 45.5 17.4656V17.4656Z" fill="#E82127"/>
</svg>
