<svg width="50" height="6" viewBox="0 0 50 6" fill="none" xmlns="http://www.w3.org/2000/svg">
<g clip-path="url(#clip0)">
<path d="M34.3546 0.0075666L33.0875 0.0105941V5.99546H38.8985C39.5341 5.74719 39.8745 5.31803 40.0061 4.81695H34.3513L34.3546 0.0075666ZM43.8371 1.20348H48.6844C49.3578 1.08086 49.8594 0.533617 50 0.00453849H42.5206C42.6604 0.533617 43.1694 1.08086 43.8371 1.20348ZM28.139 1.18683C28.8125 1.00668 29.3798 0.533617 29.518 0.00908008H22.4053V3.54535H28.227V4.78668L23.6609 4.79046C22.9447 4.97363 22.3395 5.41567 22.0361 6L22.4053 5.99394H29.4785V2.36987H23.6609V1.18683H28.139ZM42.7163 5.99394H43.9768V3.58471H48.566V5.99394H49.8257V2.38047L42.7163 2.37441V5.99394ZM12.6087 1.19969H17.4552C18.1295 1.07632 18.6303 0.529076 18.7709 -2.52724e-06H11.2923C11.4321 0.529076 11.9402 1.07632 12.6087 1.19969ZM0 0.0136217C0.145542 0.537401 0.638085 1.07102 1.31317 1.20575H3.35323L3.45684 1.2436V5.98183H4.73136V1.2436L4.84648 1.20575H6.88901C7.57067 1.04377 8.05253 0.537401 8.19642 0.0136217V0.00226798H0V0.0136217ZM12.6087 5.9947H17.4552C18.1295 5.87057 18.6303 5.32484 18.7709 4.795H11.2923C11.4321 5.32484 11.9402 5.87057 12.6087 5.9947ZM12.6087 3.56503H17.4552C18.1295 3.44241 18.6303 2.89517 18.7709 2.36609H11.2923C11.4321 2.89517 11.9402 3.44241 12.6087 3.56503Z" fill="#E82127"/>
</g>
<defs>
<clipPath id="clip0">
<rect width="50" height="6" fill="white"/>
</clipPath>
</defs>
</svg>
